<svg width="110" height="110" viewBox="0 0 110 110" fill="none" xmlns="http://www.w3.org/2000/svg">
<path fill-rule="evenodd" clip-rule="evenodd" d="M36.5685 55C36.5685 64.9411 44.5976 73 54.5019 73C64.4061 73 72.4352 64.9411 72.4352 55C72.4352 45.0589 64.4061 37 54.5019 37C44.5976 37 36.5685 45.0589 36.5685 55Z" fill="#FFCB14"/>
<path fill-rule="evenodd" clip-rule="evenodd" d="M88.1294 51.6033H81.3906C79.8109 51.6033 78.5199 52.8763 78.5199 54.4341V54.5681C78.5199 56.1258 79.8109 57.3988 81.3906 57.3988H88.1294C89.7091 57.3988 91.0001 56.1258 91.0001 54.5681V54.4341C91.0001 52.8763 89.7091 51.6033 88.1294 51.6033Z" fill="#FFCB14"/>
<path fill-rule="evenodd" clip-rule="evenodd" d="M31.4826 54.567V54.433C31.4826 52.8752 30.1916 51.6022 28.6119 51.6022H21.8731C20.2934 51.6022 19 52.8752 19 54.433V54.567C19 56.1247 20.2934 57.3977 21.8731 57.3977H28.6119C30.1916 57.3977 31.4826 56.1247 31.4826 54.567Z" fill="#FFCB14"/>
<path fill-rule="evenodd" clip-rule="evenodd" d="M73.0601 23.7907L72.9436 23.7237C71.575 22.946 69.8108 23.4102 69.0197 24.7598L65.6515 30.5171C64.8605 31.8643 65.3337 33.6063 66.6999 34.384L66.8188 34.451C68.185 35.2287 69.9515 34.7621 70.7402 33.4125L74.1108 27.6576C74.8995 26.3104 74.4263 24.5684 73.0601 23.7907Z" fill="#FFCB14"/>
<path fill-rule="evenodd" clip-rule="evenodd" d="M43.3006 74.6182L43.1841 74.5512C41.8155 73.7711 40.0513 74.2377 39.2627 75.5873L35.8921 81.3422C35.1034 82.6918 35.5742 84.4314 36.9428 85.2091L37.0593 85.2785C38.4279 86.0561 40.1921 85.5895 40.9807 84.2399L44.3513 78.4851C45.14 77.1355 44.6692 75.3958 43.3006 74.6182Z" fill="#FFCB14"/>
<path fill-rule="evenodd" clip-rule="evenodd" d="M70.7402 75.5865C69.9515 74.2394 68.185 73.7727 66.8188 74.5504L66.6999 74.6174C65.3337 75.3951 64.8605 77.1347 65.6515 78.4843L69.0221 84.2416C69.8108 85.5888 71.575 86.0554 72.9436 85.2777L73.0601 85.2083C74.4287 84.4307 74.8995 82.691 74.1108 81.3414L70.7402 75.5865Z" fill="#FFCB14"/>
<path fill-rule="evenodd" clip-rule="evenodd" d="M39.2627 33.4135C40.0513 34.7631 41.8155 35.2273 43.1841 34.4496L43.3006 34.3826C44.6692 33.605 45.14 31.8653 44.3513 30.5157L40.9807 24.7609C40.1921 23.4113 38.4279 22.9447 37.0593 23.7247L36.9428 23.7917C35.5742 24.5694 35.1034 26.3091 35.8921 27.6586L39.2627 33.4135Z" fill="#FFCB14"/>
<path fill-rule="evenodd" clip-rule="evenodd" d="M33.6168 38.9797L27.7807 35.656C26.4121 34.8783 24.648 35.3449 23.8593 36.6921L23.7914 36.8094C23.0003 38.1566 23.4735 39.8986 24.8421 40.6763L30.6781 44C32.0468 44.7777 33.8109 44.3111 34.5996 42.9639L34.6675 42.8466C35.4586 41.4994 34.983 39.7574 33.6168 38.9797Z" fill="#FFCB14"/>
<path fill-rule="evenodd" clip-rule="evenodd" d="M85.1612 68.3251L79.3227 65.0014C77.9565 64.2237 76.1924 64.6879 75.4037 66.0375L75.3358 66.1524C74.5447 67.502 75.0179 69.2416 76.3841 70.0193L82.2225 73.343C83.5912 74.1207 85.3553 73.6565 86.144 72.3093L86.2119 72.192C87.0006 70.8424 86.5274 69.1028 85.1612 68.3251Z" fill="#FFCB14"/>
<path fill-rule="evenodd" clip-rule="evenodd" d="M34.6003 66.0371C33.8092 64.6899 32.0475 64.2233 30.6789 65.001L24.8428 68.3247C23.4742 69.1024 23.001 70.842 23.7897 72.1916L23.86 72.3089C24.6487 73.6561 26.4129 74.1203 27.7791 73.3426L33.6175 70.0213C34.9837 69.2412 35.4594 67.5016 34.6683 66.152L34.6003 66.0371Z" fill="#FFCB14"/>
<path fill-rule="evenodd" clip-rule="evenodd" d="M75.4024 42.9629C76.191 44.3101 77.9576 44.7767 79.3238 43.999L85.1599 40.6753C86.5285 39.8976 87.0017 38.158 86.2131 36.8084L86.1427 36.6935C85.354 35.3439 83.5899 34.8797 82.2237 35.6574L76.3852 38.9787C75.0166 39.7588 74.5434 41.4984 75.3344 42.848L75.4024 42.9629Z" fill="#FFCB14"/>
<path fill-rule="evenodd" clip-rule="evenodd" d="M54.9335 31.309H55.0693C56.6491 31.309 57.9401 30.036 57.9401 28.4782V21.8332C57.9401 20.2754 56.6491 19 55.0693 19H54.9335C53.3537 19 52.0627 20.2754 52.0627 21.8332V28.4782C52.0627 30.036 53.3537 31.309 54.9335 31.309Z" fill="#FFCB14"/>
<path fill-rule="evenodd" clip-rule="evenodd" d="M55.0686 77.691H54.9327C53.353 77.691 52.062 78.9641 52.062 80.5218V87.1692C52.062 88.7246 53.353 90 54.9327 90H55.0686C56.6484 90 57.9393 88.7246 57.9393 87.1692V80.5218C57.9393 78.9641 56.6484 77.691 55.0686 77.691Z" fill="#FFCB14"/>
</svg>
