<svg width="110" height="110" viewBox="0 0 110 110" fill="none" xmlns="http://www.w3.org/2000/svg">
<path fill-rule="evenodd" clip-rule="evenodd" d="M97.4501 41.3692H91.4644C90.0612 41.3692 88.9146 42.5159 88.9146 43.9192V44.0399C88.9146 45.4432 90.0612 46.5899 91.4644 46.5899H97.4501C98.8533 46.5899 100 45.4432 100 44.0399V43.9192C100 42.5159 98.8533 41.3692 97.4501 41.3692Z" fill="#FFCB14"/>
<path fill-rule="evenodd" clip-rule="evenodd" d="M84.0649 16.3151L83.9614 16.2548C82.7457 15.5542 81.1787 15.9724 80.4761 17.1881L77.4843 22.3743C76.7816 23.5879 77.2019 25.1571 78.4155 25.8577L78.5211 25.918C79.7346 26.6186 81.3037 26.1982 82.0043 24.9825L84.9982 19.7985C85.6987 18.5849 85.2784 17.0157 84.0649 16.3151Z" fill="#FFCB14"/>
<path fill-rule="evenodd" clip-rule="evenodd" d="M54.0446 24.9836C54.7451 26.1993 56.3121 26.6175 57.5278 25.9169L57.6312 25.8566C58.8469 25.156 59.265 23.589 58.5645 22.3732L55.5706 17.1892C54.8701 15.9735 53.3031 15.5531 52.0874 16.2558L51.984 16.3162C50.7683 17.0167 50.3501 18.5838 51.0506 19.7995L54.0446 24.9836Z" fill="#FFCB14"/>
<path fill-rule="evenodd" clip-rule="evenodd" d="M49.0296 29.9978L43.8458 27.0038C42.6301 26.3033 41.0631 26.7236 40.3626 27.9372L40.3022 28.0428C39.5995 29.2563 40.0199 30.8256 41.2355 31.5261L46.4194 34.5201C47.635 35.2207 49.202 34.8004 49.9026 33.5868L49.9629 33.4812C50.6656 32.2676 50.2431 30.6984 49.0296 29.9978Z" fill="#FFCB14"/>
<path fill-rule="evenodd" clip-rule="evenodd" d="M94.814 56.4325L89.628 53.4384C88.4145 52.7379 86.8475 53.156 86.1469 54.3718L86.0866 54.4752C85.3839 55.691 85.8042 57.258 87.0177 57.9586L92.2037 60.9526C93.4194 61.6532 94.9864 61.235 95.6869 60.0214L95.7473 59.9158C96.4478 58.7001 96.0275 57.133 94.814 56.4325Z" fill="#FFCB14"/>
<path fill-rule="evenodd" clip-rule="evenodd" d="M86.1457 33.5857C86.8462 34.7992 88.4153 35.2196 89.6288 34.519L94.8127 31.525C96.0284 30.8244 96.4487 29.2574 95.7481 28.0416L95.6856 27.9382C94.9851 26.7225 93.4181 26.3043 92.2046 27.0048L87.0186 29.9967C85.8029 30.6994 85.3826 32.2665 86.0853 33.4822L86.1457 33.5857Z" fill="#FFCB14"/>
<path fill-rule="evenodd" clip-rule="evenodd" d="M67.9642 23.0881H68.0849C69.4881 23.0881 70.6348 21.9413 70.6348 20.5381V14.5521C70.6348 13.1489 69.4881 12 68.0849 12H67.9642C66.561 12 65.4143 13.1489 65.4143 14.5521V20.5381C65.4143 21.9413 66.561 23.0881 67.9642 23.0881Z" fill="#FFCB14"/>
<path fill-rule="evenodd" clip-rule="evenodd" d="M82.1649 52.2697C83.5939 49.8376 84.4134 47.0041 84.4134 43.9792C84.4134 34.9281 77.0763 27.5907 68.0256 27.5907C61.871 27.5907 56.5088 30.9837 53.7073 36.0012C55.1986 36.0161 56.8696 36.1718 58.7467 36.5095C66.1732 37.8458 70.3284 46.1602 71.4778 50.1504C72.8923 50.0576 76.305 50.0391 78.639 50.7072C79.9444 51.1242 81.1163 51.656 82.1649 52.2697Z" fill="#FFCB14"/>
<path d="M13.2778 53.3218C19.6839 46.2407 28.3458 47.4209 31.8759 48.8961C31.6176 50.1978 31.3593 51.4994 30.8427 55.4045C30.3261 59.3095 32.4935 59.7888 33.6841 58.7888C35.2339 57.4871 35.2339 56.1855 35.4922 52.2805C35.7505 48.3755 39.6251 44.7308 41.9499 42.6481C44.2747 40.5654 48.4076 37.9621 57.4483 39.5241C64.6809 40.7737 68.7277 48.549 69.847 52.2805C71.2247 52.1937 74.5482 52.1764 76.8213 52.8012C82.7624 54.6235 85.8621 58.7889 87.1536 62.1732C88.4451 65.5576 88.1868 72.0659 85.0872 77.0123C82.6074 80.9694 76.9935 82.6529 74.4966 83H24.9016C18.7023 83 16.1192 79.6156 13.2778 77.0123C10.4365 74.4089 5.27033 62.1732 13.2778 53.3218Z" fill="#B3B3B3"/>
</svg>
