<svg width="110" height="110" viewBox="0 0 110 110" fill="none" xmlns="http://www.w3.org/2000/svg">
<path d="M20.2298 53.2896C26.5639 46.2009 35.1286 47.3823 38.6191 48.8591C38.3637 50.1622 38.1083 51.4653 37.5975 55.3746C37.0867 59.2838 39.2297 59.7637 40.4069 58.7626C41.9394 57.4595 41.9394 56.1564 42.1948 52.2472C42.4502 48.338 46.2813 44.6893 48.58 42.6044C50.8786 40.5195 54.9651 37.9133 63.9044 39.477C71.0558 40.728 75.0571 48.5117 76.1639 52.2472C77.5261 52.1603 80.8123 52.143 83.0599 52.7684C88.9343 54.5928 91.9991 58.7626 93.2762 62.1507C94.5532 65.5387 94.2978 72.0541 91.2329 77.0058C88.781 80.9672 83.2302 82.6525 80.7612 83H31.7231C25.5933 83 23.0393 79.612 20.2298 77.0058C17.4203 74.3996 12.3122 62.1506 20.2298 53.2896Z" fill="#B3B3B3"/>
</svg>
