<svg width="110" height="110" viewBox="0 0 110 110" fill="none" xmlns="http://www.w3.org/2000/svg">
<path d="M31.3383 53.0195C37.8348 45.8663 46.619 47.0585 50.1991 48.5488C49.2857 48.8461 49.2382 50.5936 48.7143 54.5384C48.1904 58.4832 50.8253 59.5524 52.0328 58.5422C53.6045 57.2273 53.6045 55.9124 53.8665 51.9676C54.1284 48.0229 58.0577 44.341 60.4153 42.2371C62.7729 40.1332 66.9642 37.5034 76.1327 39.0813C83.4675 40.3436 87.5714 48.1982 88.7066 51.9676C90.1037 51.88 93.4742 51.8624 95.7794 52.4936C101.804 54.3345 104.948 58.5423 106.258 61.9611C107.567 65.3799 107.305 71.9546 104.162 76.9513C101.647 80.9487 95.954 82.6493 93.4218 83H43.1263C36.8393 83 34.2198 79.5812 31.3383 76.9513C28.4568 74.3214 23.2176 61.961 31.3383 53.0195Z" fill="#B2B2B2"/>
<path fill-rule="evenodd" clip-rule="evenodd" d="M26.1991 18.9488C22.619 17.4585 13.8348 16.2663 7.33828 23.4195C-0.782351 32.3611 4.45676 44.7215 7.33828 47.3513C7.714 47.6942 8.08527 48.0506 8.4608 48.411C10.9653 50.8146 13.6591 53.4 19.1263 53.4H48.8629C50.3494 43.9674 58.8965 29.0206 81.2858 36.8923L82.989 37.7406C83.0596 35.6403 82.787 33.7429 82.2576 32.3611C80.9478 28.9423 77.8044 24.7345 71.7794 22.8936C69.4742 22.2624 66.1037 22.28 64.7066 22.3676C63.5714 18.5982 59.4675 10.7437 52.1327 9.48133C42.9642 7.90341 38.7729 10.5333 36.4153 12.6372C36.3771 12.6712 36.3385 12.7058 36.2993 12.7407C33.923 14.8602 29.8665 18.4783 29.8665 22.3676C29.8665 22.431 29.8285 22.3633 29.7403 22.2062C29.4195 21.6345 28.4345 19.8793 26.1991 18.9488Z" fill="#0A2260"/>
</svg>
