<svg width="110" height="110" viewBox="0 0 110 110" fill="none" xmlns="http://www.w3.org/2000/svg">
<path d="M31.6702 53.3245C38.0138 46.2842 46.5913 47.4576 50.0871 48.9243C49.1952 49.217 49.1488 50.9369 48.6372 54.8194C48.1256 58.7019 50.6986 59.7542 51.8776 58.76C53.4123 57.4658 53.4123 56.1716 53.6681 52.2892C53.9239 48.4067 57.7607 44.783 60.0628 42.7123C62.3649 40.6417 66.4576 38.0533 75.4102 39.6063C82.5723 40.8487 86.5797 48.5792 87.6881 52.2892C89.0523 52.2029 92.3435 52.1856 94.5944 52.8068C100.478 54.6187 103.547 58.76 104.826 62.1248C106.105 65.4897 105.849 71.9605 102.78 76.8783C100.324 80.8126 94.7649 82.4864 92.2923 82.8315H43.1807C37.0418 82.8315 34.4839 79.4666 31.6702 76.8783C28.8566 74.29 23.7408 62.1248 31.6702 53.3245Z" fill="#B2B2B2"/>
<path fill-rule="evenodd" clip-rule="evenodd" d="M26.653 19.7917C23.1572 18.3249 14.5797 17.1516 8.23616 24.1918C0.306685 32.9922 5.42247 45.1574 8.23616 47.7457C8.60304 48.0832 8.96557 48.4339 9.33225 48.7886C11.7778 51.1543 14.4082 53.6988 19.7467 53.6988H48.7826C50.234 44.4153 58.5799 29.7044 80.4422 37.4518L82.1061 38.2871C82.175 36.2198 81.9088 34.3523 81.3919 32.9922C80.1129 29.6274 77.0435 25.486 71.1603 23.6742C68.9094 23.053 65.6182 23.0703 64.254 23.1565C63.1456 19.4466 59.1382 11.7161 51.9761 10.4737C43.0235 8.92073 38.9309 11.5091 36.6288 13.5797C36.5914 13.6133 36.5537 13.6472 36.5155 13.6816C34.1951 15.7676 30.234 19.3287 30.234 23.1565C30.234 23.2189 30.1969 23.1523 30.1108 22.9976C29.7976 22.435 28.8358 20.7075 26.653 19.7917Z" fill="#0A2260"/>
<path fill-rule="evenodd" clip-rule="evenodd" d="M54.4247 87.4269C54.4247 87.4269 47.3711 91.016 46.218 91.7654C45.063 92.5148 44.6228 92.8622 44.0535 93.7262C42.2674 96.4363 42.9495 100.131 45.5759 101.973C48.2023 103.816 51.7782 103.111 53.5607 100.401C54.1446 99.5184 54.2391 99.03 54.5374 97.5369C54.8339 96.0438 55.3286 88.0561 55.3286 88.0561C55.3814 87.4194 54.974 87.1377 54.4247 87.4269Z" fill="#26A9E0"/>
<path fill-rule="evenodd" clip-rule="evenodd" d="M71.1637 87.4269C71.1637 87.4269 64.1101 91.016 62.957 91.7654C61.802 92.5148 61.3618 92.8622 60.7925 93.7262C59.0064 96.4363 59.6885 100.131 62.3149 101.973C64.9413 103.816 68.5172 103.111 70.2997 100.401C70.8836 99.5183 70.9782 99.03 71.2764 97.5369C71.5729 96.0438 72.0677 88.0561 72.0677 88.0561C72.1204 87.4194 71.713 87.1376 71.1637 87.4269Z" fill="#26A9E0"/>
<path fill-rule="evenodd" clip-rule="evenodd" d="M87.9031 87.4269C87.9031 87.4269 80.8495 91.016 79.6963 91.7654C78.5414 92.5148 78.1012 92.8622 77.5319 93.7262C75.7458 96.4363 76.4278 100.131 79.0543 101.973C81.6807 103.816 85.2566 103.111 87.0391 100.401C87.623 99.5183 87.7175 99.03 88.0158 97.5369C88.3123 96.0438 88.807 88.0561 88.807 88.0561C88.8598 87.4194 88.4524 87.1376 87.9031 87.4269Z" fill="#26A9E0"/>
</svg>
