<svg width="110" height="110" viewBox="0 0 110 110" fill="none" xmlns="http://www.w3.org/2000/svg">
<path fill-rule="evenodd" clip-rule="evenodd" d="M97.4502 41.2773H91.4646C90.0614 41.2773 88.9147 42.4204 88.9147 43.8193V43.9396C88.9147 45.3385 90.0614 46.4816 91.4646 46.4816H97.4502C98.8534 46.4816 100 45.3385 100 43.9396V43.8193C100 42.4204 98.8534 41.2773 97.4502 41.2773Z" fill="#FFCB14"/>
<path fill-rule="evenodd" clip-rule="evenodd" d="M84.0651 16.3016L83.9616 16.2414C82.746 15.5431 81.179 15.9599 80.4763 17.1718L77.4845 22.3418C76.7819 23.5516 77.2022 25.1159 78.4157 25.8142L78.5213 25.8744C79.7348 26.5728 81.304 26.1537 82.0045 24.9418L84.9984 19.774C85.6989 18.5642 85.2786 16.9999 84.0651 16.3016Z" fill="#FFCB14"/>
<path fill-rule="evenodd" clip-rule="evenodd" d="M54.0442 24.9429C54.7447 26.1548 56.3117 26.5717 57.5274 25.8733L57.6308 25.8132C58.8465 25.1148 59.2647 23.5526 58.5641 22.3407L55.5702 17.1729C54.8697 15.961 53.3027 15.542 52.087 16.2425L51.9836 16.3027C50.7679 17.001 50.3498 18.5632 51.0503 19.7751L54.0442 24.9429Z" fill="#FFCB14"/>
<path fill-rule="evenodd" clip-rule="evenodd" d="M49.0298 29.9415L43.846 26.9568C42.6303 26.2585 41.0633 26.6775 40.3628 27.8873L40.3025 27.9926C39.5998 29.2023 40.0201 30.7666 41.2358 31.465L46.4196 34.4496C47.6353 35.148 49.2023 34.729 49.9028 33.5192L49.9631 33.4139C50.6658 32.2042 50.2434 30.6399 49.0298 29.9415Z" fill="#FFCB14"/>
<path fill-rule="evenodd" clip-rule="evenodd" d="M94.8136 56.2934L89.6276 53.3088C88.4141 52.6104 86.8471 53.0273 86.1466 54.2392L86.0862 54.3423C85.3836 55.5543 85.8039 57.1164 87.0174 57.8148L92.2034 60.7994C93.419 61.4978 94.986 61.0809 95.6866 59.8712L95.7469 59.7659C96.4474 58.554 96.0271 56.9918 94.8136 56.2934Z" fill="#FFCB14"/>
<path fill-rule="evenodd" clip-rule="evenodd" d="M86.1455 33.5182C86.846 34.7279 88.4152 35.1469 89.6287 34.4486L94.8126 31.4639C96.0282 30.7656 96.4485 29.2034 95.748 27.9915L95.6855 27.8884C94.985 26.6764 93.418 26.2596 92.2045 26.9579L87.0185 29.9404C85.8028 30.6409 85.3825 32.2031 86.0852 33.415L86.1455 33.5182Z" fill="#FFCB14"/>
<path fill-rule="evenodd" clip-rule="evenodd" d="M67.9644 23.0533H68.0851C69.4883 23.0533 70.635 21.9102 70.635 20.5113V14.5442C70.635 13.1453 69.4883 12 68.0851 12H67.9644C66.5612 12 65.4146 13.1453 65.4146 14.5442V20.5113C65.4146 21.9102 66.5612 23.0533 67.9644 23.0533Z" fill="#FFCB14"/>
<path fill-rule="evenodd" clip-rule="evenodd" d="M53.6652 36.0009C55.1672 36.0132 56.8521 36.1686 58.7469 36.5096C66.1734 37.8458 70.3286 46.1603 71.478 50.1505C72.8925 50.0577 76.3052 50.0391 78.6392 50.7072C79.9214 51.1168 81.0746 51.6371 82.1089 52.237C83.5722 49.7918 84.4129 46.9333 84.4129 43.8791C84.4129 34.8564 77.0758 27.5419 68.0251 27.5419C61.8399 27.5419 56.4549 30.958 53.6652 36.0009Z" fill="#FFCB14"/>
<path d="M13.2778 53.1924C19.6838 46.1335 28.3457 47.31 31.8759 48.7806C31.6176 50.0782 31.3593 51.3758 30.8427 55.2686C30.3261 59.1614 32.4934 59.6392 33.684 58.6423C35.2339 57.3447 35.2339 56.0471 35.4922 52.1544C35.7505 48.2616 39.6251 44.6283 41.9499 42.5522C44.2746 40.476 48.4075 37.8808 57.4483 39.4379C64.6808 40.6836 68.7276 48.4346 69.847 52.1544C71.2246 52.0679 74.5482 52.0506 76.8213 52.6734C82.7623 54.4901 85.862 58.6424 87.1535 62.0161C88.4451 65.3899 88.1868 71.8779 85.0871 76.8087C82.6073 80.7534 76.9935 82.4317 74.4965 82.7777H24.9016C18.7023 82.7777 16.1192 79.4039 13.2778 76.8087C10.4365 74.2135 5.27034 62.0161 13.2778 53.1924Z" fill="#B3B3B3"/>
<path fill-rule="evenodd" clip-rule="evenodd" d="M36.2561 87.3856C36.2561 87.3856 29.1332 90.9842 27.9687 91.7356C26.8023 92.487 26.3578 92.8354 25.7829 93.7016C23.9792 96.4189 24.668 100.123 27.3203 101.97C29.9726 103.818 33.5836 103.112 35.3837 100.394C35.9733 99.5091 36.0688 99.0195 36.37 97.5224C36.6694 96.0254 37.169 88.0164 37.169 88.0164C37.2223 87.3781 36.8108 87.0956 36.2561 87.3856Z" fill="#26A9E0"/>
<path fill-rule="evenodd" clip-rule="evenodd" d="M53.1604 87.3856C53.1604 87.3856 46.0375 90.9843 44.873 91.7356C43.7066 92.487 43.2621 92.8354 42.6872 93.7016C40.8835 96.419 41.5723 100.123 44.2246 101.97C46.8769 103.818 50.4879 103.112 52.288 100.394C52.8776 99.5092 52.9731 99.0195 53.2743 97.5225C53.5737 96.0254 54.0733 88.0165 54.0733 88.0165C54.1266 87.3781 53.7151 87.0956 53.1604 87.3856Z" fill="#26A9E0"/>
<path fill-rule="evenodd" clip-rule="evenodd" d="M70.0645 87.3856C70.0645 87.3856 62.9415 90.9843 61.777 91.7356C60.6107 92.487 60.1662 92.8354 59.5913 93.7016C57.7876 96.419 58.4763 100.123 61.1286 101.97C63.7809 103.818 67.392 103.112 69.192 100.394C69.7816 99.5092 69.8771 99.0195 70.1784 97.5225C70.4778 96.0254 70.9774 88.0165 70.9774 88.0165C71.0306 87.3781 70.6192 87.0956 70.0645 87.3856Z" fill="#26A9E0"/>
</svg>
