<svg width="110" height="116" viewBox="0 0 110 116" fill="none" xmlns="http://www.w3.org/2000/svg">
<path d="M31.7931 56.2689C38.1646 49.2376 46.78 50.4095 50.2912 51.8743C49.3953 52.1666 49.3487 53.8844 48.8349 57.7619C48.3211 61.6394 50.9054 62.6903 52.0896 61.6974C53.6311 60.4049 53.6311 59.1124 53.888 55.2349C54.1449 51.3574 57.9987 47.7384 60.311 45.6703C62.6232 43.6023 66.7339 41.0173 75.726 42.5683C82.9198 43.8091 86.9448 51.5297 88.0581 55.2349C89.4283 55.1487 92.734 55.1315 94.9949 55.7519C100.904 57.5614 103.987 61.6974 105.272 65.058C106.556 68.4185 106.299 74.881 103.216 79.7925C100.75 83.7218 95.1662 85.3934 92.6826 85.7381H43.3544C37.1883 85.7381 34.6192 82.3775 31.7931 79.7925C28.967 77.2075 23.8286 65.0579 31.7931 56.2689Z" fill="#B2B2B2"/>
<path fill-rule="evenodd" clip-rule="evenodd" d="M26.753 22.7791C23.2417 21.3143 14.6264 20.1424 8.25485 27.1736C0.290386 35.9627 5.42875 48.1123 8.25485 50.6973C8.62335 51.0344 8.98748 51.3846 9.35578 51.7389C11.8121 54.1016 14.4541 56.6429 19.8161 56.6429H48.9807C50.4385 47.3712 58.8212 32.6791 80.78 40.4166L82.4508 41.2506C82.52 39.186 82.2526 37.321 81.7334 35.9627C80.4488 32.6022 77.3658 28.4662 71.4567 26.6567C69.1958 26.0363 65.8901 26.0535 64.5199 26.1397C63.4066 22.4345 59.3815 14.7139 52.1878 13.4731C43.1957 11.9221 39.085 14.5071 36.7727 16.5751C36.7353 16.6086 36.6973 16.6426 36.659 16.6769C34.3284 18.7602 30.3498 22.3167 30.3498 26.1397C30.3498 26.202 30.3125 26.1354 30.2261 25.981C29.9114 25.4191 28.9454 23.6938 26.753 22.7791Z" fill="#0A2260"/>
<path fill-rule="evenodd" clip-rule="evenodd" d="M80.3978 81.0077L68.8042 81.3198L76.3225 66.8408C76.4447 66.6098 76.4172 66.3413 76.2522 66.1259C76.0872 65.9136 75.8062 65.7825 75.4976 65.7763L62.786 65.5952C62.4102 65.6233 62.0345 65.7981 61.9062 66.1134L52.2434 89.8143C52.1517 90.0485 52.2006 90.3045 52.3717 90.5043C52.5427 90.7009 52.8177 90.8196 53.1079 90.8196H53.1171L64.5976 90.7509L59.8777 106.048C59.7677 106.407 59.9815 106.781 60.3909 106.931C60.5101 106.978 60.6353 107 60.7606 107C61.0599 107 61.3502 106.878 61.5212 106.663L81.186 82.1908C81.3754 81.9567 81.3937 81.6508 81.2257 81.3979C81.0607 81.1481 80.7338 80.9827 80.3978 81.0077Z" fill="#FF9933"/>
</svg>
