<svg width="110" height="110" viewBox="0 0 110 110" fill="none" xmlns="http://www.w3.org/2000/svg">
<path fill-rule="evenodd" clip-rule="evenodd" d="M43.4216 97.5262L40.0473 96.2234L42.6779 93.7692C42.91 93.5571 42.9184 93.1963 42.7003 92.9704L41.638 91.8632C41.4227 91.6373 41.0565 91.6263 40.8272 91.8439L38.4342 94.075L37.8024 90.8853C37.7437 90.5823 37.439 90.3785 37.1286 90.4391L35.6134 90.7311C35.3031 90.7917 35.0962 91.0892 35.1577 91.3921L35.7896 94.5818L32.72 93.3974C32.4236 93.2844 32.091 93.4304 31.9735 93.7169L31.4116 95.1382C31.297 95.4246 31.4424 95.7552 31.7359 95.8681L35.113 97.1709L32.4796 99.6279C32.2503 99.8427 32.2391 100.201 32.46 100.429L33.5195 101.534C33.7376 101.76 34.1038 101.771 34.333 101.556L36.7261 99.3221L37.3579 102.512C37.4166 102.815 37.7213 103.016 38.0316 102.958L39.5469 102.666C39.8572 102.605 40.0612 102.308 40.0025 102.002L39.3707 98.8153L42.4375 99.997C42.7338 100.11 43.0693 99.9694 43.1839 99.6775L43.7487 98.2617C43.8633 97.9697 43.7151 97.6392 43.4216 97.5262Z" fill="#D1F2FF"/>
<path fill-rule="evenodd" clip-rule="evenodd" d="M78.3671 97.5581L74.9928 96.2552L77.6235 93.8038C77.8555 93.5889 77.8639 93.2281 77.6459 93.0022L76.5835 91.895C76.3683 91.6691 76.002 91.6581 75.7728 91.8757L73.3798 94.1068L72.7507 90.9199C72.6892 90.6142 72.3845 90.4103 72.077 90.4737L70.559 90.7629C70.2487 90.8235 70.0418 91.121 70.1033 91.4267L70.7351 94.6163L67.6655 93.4319C67.372 93.3163 67.0365 93.4622 66.9191 93.7515L66.3572 95.17C66.2426 95.4564 66.3879 95.787 66.6815 95.8999L70.0586 97.2027L67.4251 99.6597C67.1959 99.8745 67.1847 100.235 67.4055 100.461L68.4651 101.566C68.6831 101.792 69.0494 101.803 69.2814 101.588L71.6716 99.354L72.3035 102.544C72.365 102.849 72.6669 103.048 72.9772 102.99L74.4952 102.698C74.8027 102.64 75.0068 102.34 74.9481 102.034L74.3163 98.8499L77.3859 100.029C77.6794 100.144 78.0149 100.001 78.1295 99.7093L78.6942 98.2935C78.8088 98.0015 78.6607 97.671 78.3671 97.5581Z" fill="#D1F2FF"/>
<path fill-rule="evenodd" clip-rule="evenodd" d="M60.8945 97.5262L57.5202 96.2234L60.1508 93.7692C60.3829 93.5571 60.3913 93.1963 60.1732 92.9704L59.1109 91.8632C58.8956 91.6373 58.5294 91.6263 58.3001 91.8439L55.9071 94.075L55.2781 90.8853C55.2166 90.5823 54.9119 90.3785 54.6044 90.4391L53.0863 90.7311C52.776 90.7917 52.5691 91.0892 52.6306 91.3921L53.2625 94.5818L50.1929 93.3974C49.8993 93.2844 49.5639 93.4304 49.4464 93.7169L48.8845 95.1382C48.7699 95.4246 48.9153 95.7552 49.2088 95.8681L52.5859 97.1709L49.9525 99.6279C49.7232 99.8427 49.712 100.201 49.9329 100.429L50.9924 101.534C51.2105 101.76 51.5767 101.771 51.8087 101.556L54.199 99.3221L54.8308 102.512C54.8923 102.815 55.1942 103.016 55.5045 102.958L57.0226 102.666C57.3301 102.605 57.5342 102.308 57.4754 102.002L56.8436 98.8153L59.9132 99.997C60.2068 100.11 60.5422 99.9694 60.6569 99.6775L61.2216 98.2617C61.3362 97.9697 61.188 97.6392 60.8945 97.5262Z" fill="#D1F2FF"/>
<path d="M19.3383 53.4752C25.8348 46.2944 34.619 47.4912 38.1991 48.9872C37.9371 50.3072 37.6752 51.6272 37.1513 55.5872C36.6273 59.5473 38.8253 60.0333 40.0328 59.0193C41.6045 57.6993 41.6045 56.3792 41.8665 52.4193C42.1284 48.4593 46.0578 44.7632 48.4154 42.6512C50.773 40.5392 54.9643 37.8992 64.1327 39.4832C71.4675 40.7504 75.5714 48.6352 76.7066 52.4193C78.1037 52.3313 81.4742 52.3137 83.7794 52.9473C89.8044 54.7953 92.9479 59.0193 94.2576 62.4513C95.5674 65.8833 95.3055 72.4834 92.162 77.4994C89.6472 81.5122 83.954 83.2194 81.4218 83.5714H31.1263C24.8393 83.5714 22.2198 80.1394 19.3383 77.4994C16.4568 74.8594 11.2176 62.4513 19.3383 53.4752Z" fill="#B3B3B3"/>
</svg>
