<svg width="110" height="110" viewBox="0 0 110 110" fill="none" xmlns="http://www.w3.org/2000/svg">
<path fill-rule="evenodd" clip-rule="evenodd" d="M21.2121 62.3627H88.1213C89.886 62.3627 91.333 61.0693 91.333 59.4897C91.333 57.9102 89.886 56.6196 88.1213 56.6196H21.2121C19.4447 56.6196 18.0004 57.9102 18.0004 59.4897C18.0004 61.0693 19.4447 62.3627 21.2121 62.3627Z" fill="#26A9E0"/>
<path fill-rule="evenodd" clip-rule="evenodd" d="M88.1208 69.5062H21.2116C19.4469 69.5062 17.9999 70.7996 17.9999 72.3792C17.9999 73.9587 19.4469 75.2493 21.2116 75.2493H88.1208C89.8882 75.2493 91.3326 73.9587 91.3326 72.3792C91.3326 70.7996 89.8882 69.5062 88.1208 69.5062Z" fill="#26A9E0"/>
<path fill-rule="evenodd" clip-rule="evenodd" d="M79.2877 82.2569H30.0445C28.2798 82.2569 26.8328 83.5503 26.8328 85.1298C26.8328 86.7066 28.2798 88 30.0445 88H79.2877C81.0551 88 82.4995 86.7066 82.4995 85.1298C82.4995 83.5503 81.0551 82.2569 79.2877 82.2569Z" fill="#26A9E0"/>
<path fill-rule="evenodd" clip-rule="evenodd" d="M30.045 49.7459H79.2882C81.0556 49.7459 82.4999 48.4525 82.4999 46.8729C82.4999 45.2934 81.0556 44 79.2882 44H30.045C28.2803 44 26.8333 45.2934 26.8333 46.8729C26.8333 48.4525 28.2803 49.7459 30.045 49.7459Z" fill="#26A9E0"/>
</svg>
