<svg width="54" height="52" viewBox="0 0 54 52" fill="none" xmlns="https://www.w3.org/2000/svg">
<path d="M47.9381 43.3926L34.5299 30.2047C36.6106 27.559 37.7361 24.3242 37.7361 20.9219C37.7361 16.8492 36.1201 13.0305 33.1979 10.1512C30.2756 7.27187 26.3828 5.6875 22.2473 5.6875C18.1117 5.6875 14.2189 7.27695 11.2967 10.1512C8.36926 13.0254 6.75842 16.8492 6.75842 20.9219C6.75842 24.9895 8.37442 28.8184 11.2967 31.6926C14.2189 34.5719 18.1066 36.1563 22.2473 36.1563C25.7064 36.1563 28.9901 35.0492 31.68 33.0078L45.0881 46.1906C45.1274 46.2293 45.1741 46.26 45.2255 46.281C45.2769 46.3019 45.332 46.3127 45.3876 46.3127C45.4432 46.3127 45.4983 46.3019 45.5497 46.281C45.601 46.26 45.6477 46.2293 45.687 46.1906L47.9381 43.9816C47.9774 43.943 48.0086 43.8971 48.0299 43.8465C48.0512 43.796 48.0622 43.7418 48.0622 43.6871C48.0622 43.6324 48.0512 43.5782 48.0299 43.5277C48.0086 43.4772 47.9774 43.4313 47.9381 43.3926ZM30.4254 28.9656C28.2363 31.1137 25.3347 32.2969 22.2473 32.2969C19.1598 32.2969 16.2582 31.1137 14.0692 28.9656C11.8852 26.8125 10.6823 23.9586 10.6823 20.9219C10.6823 17.8852 11.8852 15.0262 14.0692 12.8781C16.2582 10.7301 19.1598 9.54688 22.2473 9.54688C25.3347 9.54688 28.2414 10.725 30.4254 12.8781C32.6093 15.0313 33.8123 17.8852 33.8123 20.9219C33.8123 23.9586 32.6093 26.8176 30.4254 28.9656Z" fill="black"/>
</svg>
